<?xml version="1.0" encoding="iso-8859-1"?>
<!-- Generator: Adobe Illustrator 22.1.0, SVG Export Plug-In . SVG Version: 6.00 Build 0)  -->
<svg id="Laag_1" xmlns="http://www.w3.org/2000/svg" xmlns:xlink="http://www.w3.org/1999/xlink" x="0px" y="0px"
	 viewBox="0 0 512 512" style="enable-background:new 0 0 512 512;" xml:space="preserve">
<g>
	<defs>
		<rect id="SVGID_1_" x="-3.889" y="-3.889" width="519.778" height="519.778"/>
	</defs>
	<clipPath id="SVGID_2_">
		<use xlink:href="#SVGID_1_"  style="overflow:visible;"/>
	</clipPath>
	<g style="clip-path:url(#SVGID_2_);">
		<defs>
			<rect id="SVGID_3_" x="-1.81" y="-3.889" width="519.778" height="519.778"/>
		</defs>
		<clipPath id="SVGID_4_">
			<use xlink:href="#SVGID_3_"  style="overflow:visible;"/>
		</clipPath>
		<rect x="-14.284" y="-14.284" style="clip-path:url(#SVGID_4_);fill:#dd645e;" width="540.569" height="540.569"/>
	</g>
</g>
<g>
	<defs>
		<circle id="SVGID_5_" cx="251.724" cy="256" r="197.649"/>
	</defs>
	<clipPath id="SVGID_6_">
		<use xlink:href="#SVGID_5_"  style="overflow:visible;"/>
	</clipPath>
	<g style="clip-path:url(#SVGID_6_);">
		<defs>
			<rect id="SVGID_7_" x="-1.81" y="-3.889" width="519.778" height="519.778"/>
		</defs>
		<clipPath id="SVGID_8_">
			<use xlink:href="#SVGID_7_"  style="overflow:visible;"/>
		</clipPath>
		<rect x="43.68" y="47.956" style="clip-path:url(#SVGID_8_);fill:#FFFFFF;" width="416.088" height="416.088"/>
	</g>
</g>
<g>
	<defs>
		<path id="SVGID_9_" d="M98.736,272.405h31.733v-40.352h-16.333c-0.385-10.81,1.588-19.553,5.918-26.23
			c4.33-6.676,8.843-10.014,13.539-10.014v-16.303c-10.648,1.794-19.12,7.228-25.415,16.303
			c-9.443,13.611-9.443,27.443-9.443,36.244C98.736,237.92,98.736,251.371,98.736,272.405z"/>
	</defs>
	<clipPath id="SVGID_10_">
		<use xlink:href="#SVGID_9_"  style="overflow:visible;"/>
	</clipPath>
	<g style="clip-path:url(#SVGID_10_);">
		<defs>
			<rect id="SVGID_11_" x="-1.81" y="-3.889" width="519.778" height="519.778"/>
		</defs>
		<clipPath id="SVGID_12_">
			<use xlink:href="#SVGID_11_"  style="overflow:visible;"/>
		</clipPath>
		<rect x="88.341" y="169.111" style="clip-path:url(#SVGID_12_);fill:#dd645e;" width="55.649" height="113.689"/>
	</g>
</g>
<g>
	<defs>
		<path id="SVGID_13_" d="M342.646,199.936h-31.733v40.352h16.333c0.385,10.81-1.588,19.553-5.918,26.23
			c-4.331,6.676-8.844,10.014-13.539,10.014v16.303c10.648-1.794,19.12-7.228,25.415-16.303c9.443-13.611,9.443-27.443,9.443-36.244
			C342.646,234.421,342.646,220.97,342.646,199.936z"/>
	</defs>
	<clipPath id="SVGID_14_">
		<use xlink:href="#SVGID_13_"  style="overflow:visible;"/>
	</clipPath>
	<g style="clip-path:url(#SVGID_14_);">
		<defs>
			<rect id="SVGID_15_" x="-1.81" y="-3.889" width="519.778" height="519.778"/>
		</defs>
		<clipPath id="SVGID_16_">
			<use xlink:href="#SVGID_15_"  style="overflow:visible;"/>
		</clipPath>
		<rect x="297.392" y="189.541" style="clip-path:url(#SVGID_16_);fill:#dd645e;" width="55.649" height="113.689"/>
	</g>
</g>
<g>
	<defs>
		<path id="SVGID_17_" d="M156.701,272.405h31.733v-40.352h-16.333c-0.385-10.81,1.588-19.553,5.918-26.23
			c4.33-6.676,8.843-10.014,13.539-10.014v-16.303c-10.648,1.794-19.12,7.228-25.415,16.303
			c-9.443,13.611-9.443,27.443-9.443,36.244C156.701,237.92,156.701,251.371,156.701,272.405z"/>
	</defs>
	<clipPath id="SVGID_18_">
		<use xlink:href="#SVGID_17_"  style="overflow:visible;"/>
	</clipPath>
	<g style="clip-path:url(#SVGID_18_);">
		<defs>
			<rect id="SVGID_19_" x="-1.81" y="-3.889" width="519.778" height="519.778"/>
		</defs>
		<clipPath id="SVGID_20_">
			<use xlink:href="#SVGID_19_"  style="overflow:visible;"/>
		</clipPath>
		<rect x="146.305" y="169.111" style="clip-path:url(#SVGID_20_);fill:#dd645e;" width="55.649" height="113.689"/>
	</g>
</g>
<g>
	<defs>
		<path id="SVGID_21_" d="M400.61,199.936h-31.733v40.352h16.332c0.385,10.81-1.588,19.553-5.918,26.23
			c-4.33,6.676-8.844,10.014-13.539,10.014v16.303c10.648-1.794,19.12-7.228,25.415-16.303c9.443-13.611,9.443-27.443,9.443-36.244
			C400.61,234.421,400.61,220.97,400.61,199.936z"/>
	</defs>
	<clipPath id="SVGID_22_">
		<use xlink:href="#SVGID_21_"  style="overflow:visible;"/>
	</clipPath>
	<g style="clip-path:url(#SVGID_22_);">
		<defs>
			<rect id="SVGID_23_" x="-1.81" y="-3.889" width="519.778" height="519.778"/>
		</defs>
		<clipPath id="SVGID_24_">
			<use xlink:href="#SVGID_23_"  style="overflow:visible;"/>
		</clipPath>
		<rect x="355.356" y="189.541" style="clip-path:url(#SVGID_24_);fill:#dd645e;" width="55.649" height="113.689"/>
	</g>
</g>
</svg>
