<?xml version="1.0" encoding="UTF-8" standalone="no"?>
<!DOCTYPE svg PUBLIC "-//W3C//DTD SVG 1.1//EN" "http://www.w3.org/Graphics/SVG/1.1/DTD/svg11.dtd">
<svg width="100%" height="100%" viewBox="0 0 512 512" version="1.1" xmlns="http://www.w3.org/2000/svg" xmlns:xlink="http://www.w3.org/1999/xlink" xml:space="preserve" xmlns:serif="http://www.serif.com/" style="fill-rule:evenodd;clip-rule:evenodd;stroke-linejoin:round;stroke-miterlimit:2;">
    <rect x="-14.284" y="-14.284" width="540.569" height="540.569" style="fill:rgb(213,64,73);"/>
    <g transform="matrix(21.9,0,0,21.9,-43.932,-17.744)">
        <path d="M13.5,3C18.743,3 23,7.257 23,12.5C23,17.743 18.743,22 13.5,22C8.257,22 4,17.743 4,12.5C4,7.257 8.257,3 13.5,3ZM18.843,13.269C19.243,13.194 19.506,12.901 19.634,12.39C19.709,12.086 19.735,11.823 19.714,11.599L18.843,11.599L18.843,9.857L20.553,9.857L20.553,11.463C20.553,12.097 20.423,12.663 20.162,13.161C19.901,13.659 19.461,13.945 18.843,14.02L18.843,13.269ZM16.158,13.269C16.558,13.194 16.824,12.901 16.957,12.39C17.032,12.086 17.056,11.823 17.029,11.599L16.158,11.599L16.158,9.857L17.86,9.857L17.86,11.463C17.86,12.097 17.73,12.66 17.469,13.153C17.208,13.646 16.771,13.935 16.158,14.02L16.158,13.269ZM7.769,9.784C7.401,9.853 7.143,10.119 6.994,10.583C6.919,10.812 6.882,11.038 6.882,11.262C6.882,11.288 6.883,11.311 6.886,11.33C6.889,11.348 6.893,11.39 6.898,11.454L7.769,11.454L7.769,13.196L6.067,13.196L6.067,11.59C6.067,10.801 6.224,10.194 6.538,9.768C6.853,9.341 7.263,9.096 7.769,9.033L7.769,9.784ZM10.462,9.784C10.169,9.832 9.946,9.997 9.795,10.279C9.643,10.561 9.567,10.886 9.567,11.254C9.567,11.286 9.568,11.318 9.571,11.35C9.573,11.382 9.58,11.416 9.591,11.454L10.462,11.454L10.462,13.196L8.752,13.196L8.752,11.59C8.752,10.956 8.885,10.39 9.151,9.891C9.418,9.393 9.854,9.107 10.462,9.033L10.462,9.784Z" style="fill:white;"/>
    </g>
</svg>
